<svg width="117" height="31" viewBox="0 0 117 31" fill="none" xmlns="http://www.w3.org/2000/svg">
<path d="M19.1662 25.6452V30.2542H4.72842V25.6452H19.1662ZM6.63901 1.57574V30.2542H0.72998V1.57574H6.63901Z" fill="white"/>
<path d="M32.0084 30.6482C30.3539 30.6482 28.8701 30.3855 27.557 29.8603C26.2439 29.3219 25.1277 28.58 24.2085 27.6346C23.3025 26.6891 22.6065 25.5927 22.1207 24.3452C21.6348 23.0846 21.3919 21.7452 21.3919 20.3271V19.5392C21.3919 17.9241 21.6217 16.4468 22.0813 15.1074C22.5409 13.768 23.1974 12.6059 24.051 11.6211C24.9176 10.6363 25.9681 9.88121 27.2024 9.35597C28.4368 8.81759 29.8287 8.5484 31.3782 8.5484C32.8882 8.5484 34.2276 8.79789 35.3963 9.29688C36.565 9.79586 37.5432 10.5049 38.3311 11.4241C39.1321 12.3433 39.7361 13.4463 40.1432 14.7332C40.5503 16.0069 40.7538 17.4251 40.7538 18.9877V21.3513H23.8146V17.5695H35.1796V17.1362C35.1796 16.3483 35.0352 15.6458 34.7463 15.0286C34.4705 14.3983 34.0503 13.8994 33.4857 13.5317C32.9211 13.164 32.1989 12.9802 31.3191 12.9802C30.5706 12.9802 29.9272 13.1443 29.3888 13.4726C28.8504 13.8009 28.4105 14.2605 28.0691 14.8514C27.7408 15.4423 27.4913 16.1382 27.3206 16.9392C27.163 17.7271 27.0843 18.5938 27.0843 19.5392V20.3271C27.0843 21.1806 27.2024 21.9685 27.4388 22.6907C27.6883 23.4129 28.0363 24.0366 28.4827 24.5619C28.9423 25.0871 29.4938 25.4942 30.1373 25.7831C30.7938 26.072 31.5357 26.2164 32.363 26.2164C33.3872 26.2164 34.3392 26.0194 35.219 25.6255C36.1119 25.2184 36.8801 24.6078 37.5235 23.7937L40.2811 26.7876C39.8346 27.431 39.224 28.0482 38.4493 28.6391C37.6877 29.23 36.7685 29.7159 35.6917 30.0967C34.615 30.4643 33.3872 30.6482 32.0084 30.6482Z" fill="white"/>
<path d="M49.5386 13.4923V30.2542H43.8659V8.94233H49.184L49.5386 13.4923ZM48.7113 18.8498H47.175C47.175 17.2741 47.3785 15.8559 47.7856 14.5953C48.1926 13.3216 48.7638 12.2383 49.4992 11.3453C50.2345 10.4393 51.1077 9.7499 52.1189 9.27718C53.1431 8.79132 54.2855 8.5484 55.5461 8.5484C56.5441 8.5484 57.4567 8.69284 58.2839 8.98173C59.1112 9.27061 59.8203 9.7302 60.4112 10.3605C61.0152 10.9908 61.4748 11.8246 61.79 12.862C62.1182 13.8994 62.2824 15.1665 62.2824 16.6635V30.2542H56.5703V16.6438C56.5703 15.6983 56.439 14.963 56.1764 14.4377C55.9138 13.9125 55.5264 13.5448 55.0143 13.3347C54.5153 13.1115 53.8981 12.9999 53.1628 12.9999C52.4012 12.9999 51.738 13.1509 51.1734 13.4529C50.6219 13.7549 50.1623 14.1751 49.7946 14.7135C49.4401 15.2387 49.1709 15.8559 48.9871 16.565C48.8032 17.2741 48.7113 18.0357 48.7113 18.8498Z" fill="white"/>
<path d="M79.1822 25.6058V0H84.8943V30.2542H79.7534L79.1822 25.6058ZM65.7096 19.8543V19.4407C65.7096 17.8124 65.8935 16.3352 66.2611 15.0089C66.6288 13.6696 67.1672 12.5206 67.8763 11.562C68.5854 10.6034 69.4586 9.86152 70.4959 9.33627C71.5333 8.81102 72.7151 8.5484 74.0414 8.5484C75.2888 8.5484 76.3787 8.81102 77.311 9.33627C78.2565 9.86152 79.0575 10.61 79.714 11.5817C80.3837 12.5403 80.9221 13.6761 81.3292 14.9892C81.7362 16.2892 82.0317 17.714 82.2155 19.2634V20.1695C82.0317 21.6533 81.7362 23.0321 81.3292 24.3058C80.9221 25.5795 80.3837 26.6957 79.714 27.6543C79.0575 28.5997 78.2565 29.3351 77.311 29.8603C76.3656 30.3855 75.2626 30.6482 74.002 30.6482C72.6757 30.6482 71.4939 30.379 70.4565 29.8406C69.4323 29.3022 68.5657 28.5472 67.8566 27.5755C67.1606 26.6038 66.6288 25.4614 66.2611 24.1482C65.8935 22.8351 65.7096 21.4038 65.7096 19.8543ZM71.3823 19.4407V19.8543C71.3823 20.7341 71.4479 21.5548 71.5793 22.3164C71.7237 23.078 71.9535 23.7543 72.2686 24.3452C72.5969 24.923 73.0171 25.376 73.5292 25.7043C74.0545 26.0194 74.6913 26.177 75.4398 26.177C76.4115 26.177 77.2125 25.9603 77.8428 25.527C78.4731 25.0806 78.9524 24.47 79.2807 23.6952C79.6221 22.9205 79.8191 22.0276 79.8716 21.0165V18.4362C79.8322 17.6089 79.714 16.867 79.5171 16.2104C79.3332 15.5408 79.0575 14.9695 78.6898 14.4968C78.3353 14.0241 77.8888 13.6564 77.3504 13.3938C76.8252 13.1312 76.2014 12.9999 75.4792 12.9999C74.7439 12.9999 74.1136 13.1706 73.5883 13.512C73.0631 13.8403 72.6363 14.2933 72.308 14.8711C71.9929 15.4488 71.7565 16.1317 71.599 16.9195C71.4545 17.6943 71.3823 18.5347 71.3823 19.4407Z" fill="white"/>
<path d="M94.5063 0V2.99391C94.5063 3.84744 94.3422 4.72722 94.0139 5.63328C93.6987 6.53933 93.272 7.39942 92.7336 8.21355C92.1952 9.01455 91.6043 9.69738 90.9609 10.262L88.3018 8.72567C88.7877 7.95093 89.2013 7.11053 89.5427 6.20448C89.8841 5.2853 90.0548 4.22167 90.0548 3.01361V0H94.5063Z" fill="white"/>
<path d="M103.744 13.4923V30.2542H98.0714V8.94233H103.39L103.744 13.4923ZM102.917 18.8498H101.38C101.38 17.2741 101.584 15.8559 101.991 14.5953C102.398 13.3216 102.969 12.2383 103.705 11.3453C104.44 10.4393 105.313 9.7499 106.324 9.27718C107.349 8.79132 108.491 8.5484 109.752 8.5484C110.75 8.5484 111.662 8.69284 112.489 8.98173C113.317 9.27061 114.026 9.7302 114.617 10.3605C115.221 10.9908 115.68 11.8246 115.995 12.862C116.324 13.8994 116.488 15.1665 116.488 16.6635V30.2542H110.776V16.6438C110.776 15.6983 110.645 14.963 110.382 14.4377C110.119 13.9125 109.732 13.5448 109.22 13.3347C108.721 13.1115 108.104 12.9999 107.368 12.9999C106.607 12.9999 105.944 13.1509 105.379 13.4529C104.827 13.7549 104.368 14.1751 104 14.7135C103.646 15.2387 103.376 15.8559 103.193 16.565C103.009 17.2741 102.917 18.0357 102.917 18.8498Z" fill="white"/>
</svg>
