<svg width="16" height="14" viewBox="0 0 16 14" fill="none" xmlns="http://www.w3.org/2000/svg">
<path d="M13.7199 0.842687L1.6097 2.45826C1.0995 2.52631 0.67707 2.86984 0.507229 3.35469C0.337415 3.83959 0.454429 4.36809 0.812641 4.73391L3.64168 7.62314L7.90477 5.16184C8.10094 5.04859 8.35121 5.11474 8.46373 5.30963C8.57624 5.5045 8.50843 5.75433 8.31224 5.8676L4.04915 8.3289L5.13676 12.2235C5.27448 12.7167 5.67364 13.0823 6.17849 13.1776C6.68433 13.2731 7.19258 13.0781 7.50608 12.671L14.9603 2.99109C15.2997 2.55037 15.3387 1.97903 15.0622 1.50001C14.7856 1.021 14.2713 0.769088 13.7199 0.842687Z" fill="white"/>
</svg>
